<mxfile host="app.diagrams.net" modified="2021-12-04T16:47:54.120Z" agent="5.0 (Windows NT 10.0; Win64; x64) AppleWebKit/537.36 (KHTML, like Gecko) Chrome/96.0.4664.45 Safari/537.36" etag="kMlktpy-aEecf7vFtVex" version="15.8.9" type="github">
  <diagram id="AdhRpchQ61gaaN8LJbJ2" name="Page-1">
    <mxGraphModel dx="5966" dy="1563" grid="1" gridSize="10" guides="1" tooltips="1" connect="1" arrows="1" fold="1" page="1" pageScale="1" pageWidth="3000" pageHeight="3300" math="0" shadow="0">
      <root>
        <mxCell id="0" />
        <mxCell id="1" parent="0" />
        <mxCell id="R6RycZYEYg_AerZo2q_A-1" value="&lt;div style=&quot;text-align: center ; box-sizing: border-box ; width: 100% ; background: rgb(228 , 228 , 228) ; padding: 2px&quot;&gt;Thiết bị nội bộ&lt;/div&gt;&lt;table style=&quot;width: 100% ; font-size: 1em&quot; cellpadding=&quot;2&quot; cellspacing=&quot;0&quot;&gt;&lt;tbody&gt;&lt;tr&gt;&lt;td&gt;PK&lt;/td&gt;&lt;td&gt;&#39;Mã thiết bị&#39; INT NOT NULL&amp;nbsp; AUTO_INCREMENT&lt;/td&gt;&lt;/tr&gt;&lt;tr&gt;&lt;td&gt;&lt;span style=&quot;white-space: pre&quot;&gt;	&lt;/span&gt;&lt;br&gt;&lt;/td&gt;&lt;td&gt;&#39;Tên thiết bị&#39; varchar(255) NOT NULL&lt;/td&gt;&lt;/tr&gt;&lt;tr&gt;&lt;td&gt;&lt;br&gt;&lt;/td&gt;&lt;td&gt;&#39;Trạng thái&#39; INT(2) NOT NULL&lt;br&gt;&lt;/td&gt;&lt;/tr&gt;&lt;tr&gt;&lt;td&gt;FK&lt;/td&gt;&lt;td&gt;&#39;Mã bộ phận&#39; INT NOT NULL&lt;/td&gt;&lt;/tr&gt;&lt;/tbody&gt;&lt;/table&gt;" style="verticalAlign=top;align=left;overflow=fill;html=1;strokeColor=default;" vertex="1" parent="1">
          <mxGeometry x="-60" y="140" width="350" height="130" as="geometry" />
        </mxCell>
        <mxCell id="R6RycZYEYg_AerZo2q_A-2" value="&lt;div style=&quot;text-align: center ; box-sizing: border-box ; width: 100% ; background: rgb(228 , 228 , 228) ; padding: 2px&quot;&gt;Cửa hàng&lt;/div&gt;&lt;table style=&quot;width: 100% ; font-size: 1em&quot; cellpadding=&quot;2&quot; cellspacing=&quot;0&quot;&gt;&lt;tbody&gt;&lt;tr&gt;&lt;td&gt;PK&lt;/td&gt;&lt;td&gt;&#39;Mã CH&#39; INT NOT NULL&amp;nbsp; AUTO_INCREMENT&lt;/td&gt;&lt;/tr&gt;&lt;tr&gt;&lt;td&gt;&lt;span style=&quot;white-space: pre&quot;&gt;	&lt;/span&gt;&lt;br&gt;&lt;/td&gt;&lt;td&gt;&#39;Tên CH&#39; varchar(255) NOT NULL&amp;nbsp;&lt;/td&gt;&lt;/tr&gt;&lt;tr&gt;&lt;td&gt;&lt;br&gt;&lt;/td&gt;&lt;td&gt;&#39;Địa chỉ&#39; TEXT NOT NULL&lt;br&gt;&lt;/td&gt;&lt;/tr&gt;&lt;tr&gt;&lt;td&gt;&lt;br&gt;&lt;/td&gt;&lt;td&gt;&#39;Tên quản lý CH&#39; varchar(255) NOT NULL&lt;/td&gt;&lt;/tr&gt;&lt;/tbody&gt;&lt;/table&gt;" style="verticalAlign=top;align=left;overflow=fill;html=1;strokeColor=default;" vertex="1" parent="1">
          <mxGeometry x="520" y="140" width="290" height="130" as="geometry" />
        </mxCell>
        <mxCell id="R6RycZYEYg_AerZo2q_A-3" value="&lt;div style=&quot;text-align: center ; box-sizing: border-box ; width: 100% ; background: rgb(228 , 228 , 228) ; padding: 2px&quot;&gt;Khách hàng&lt;/div&gt;&lt;table style=&quot;width: 100% ; font-size: 1em&quot; cellpadding=&quot;2&quot; cellspacing=&quot;0&quot;&gt;&lt;tbody&gt;&lt;tr&gt;&lt;td&gt;PK&lt;/td&gt;&lt;td&gt;&#39;Mã KH&#39; INT NOT NULL&amp;nbsp; AUTO_INCREMENT&lt;/td&gt;&lt;/tr&gt;&lt;tr&gt;&lt;td&gt;&lt;span style=&quot;white-space: pre&quot;&gt;	&lt;/span&gt;&lt;br&gt;&lt;/td&gt;&lt;td&gt;&#39;Họ tên&#39; varchar(255) NOT NULL&amp;nbsp;&lt;/td&gt;&lt;/tr&gt;&lt;tr&gt;&lt;td&gt;&lt;br&gt;&lt;/td&gt;&lt;td&gt;&#39;Ngày sinh&#39;&amp;nbsp; DATETIME&lt;br&gt;&lt;/td&gt;&lt;/tr&gt;&lt;tr&gt;&lt;td&gt;&lt;br&gt;&lt;/td&gt;&lt;td&gt;&#39;Số điện thoại&#39; varchar(50) NOT NULL&lt;/td&gt;&lt;/tr&gt;&lt;/tbody&gt;&lt;/table&gt;" style="verticalAlign=top;align=left;overflow=fill;html=1;strokeColor=default;" vertex="1" parent="1">
          <mxGeometry x="990" y="230" width="350" height="130" as="geometry" />
        </mxCell>
        <mxCell id="R6RycZYEYg_AerZo2q_A-4" value="&lt;div style=&quot;text-align: center ; box-sizing: border-box ; width: 100% ; background: rgb(228 , 228 , 228) ; padding: 2px&quot;&gt;Bộ phận&lt;/div&gt;&lt;table style=&quot;width: 100% ; font-size: 1em&quot; cellpadding=&quot;2&quot; cellspacing=&quot;0&quot;&gt;&lt;tbody&gt;&lt;tr&gt;&lt;td&gt;PK&lt;/td&gt;&lt;td&gt;&#39;Mã bộ phận&#39; INT NOT NULL&amp;nbsp; AUTO_INCREMENT&lt;/td&gt;&lt;/tr&gt;&lt;tr&gt;&lt;td&gt;&lt;span style=&quot;white-space: pre&quot;&gt;	&lt;/span&gt;&lt;br&gt;&lt;/td&gt;&lt;td&gt;&#39;Tên bộ phận&#39; varchar(255) NOT NULL&amp;nbsp;&lt;/td&gt;&lt;/tr&gt;&lt;tr&gt;&lt;td&gt;&lt;br&gt;&lt;/td&gt;&lt;td&gt;&#39;Tên quản lý BP&#39; varchar(255) NOT NULL&lt;br&gt;&lt;/td&gt;&lt;/tr&gt;&lt;tr&gt;&lt;td&gt;FK&lt;/td&gt;&lt;td&gt;&#39;Mã CH&#39; INT NOT NULL&lt;/td&gt;&lt;/tr&gt;&lt;/tbody&gt;&lt;/table&gt;" style="verticalAlign=top;align=left;overflow=fill;html=1;strokeColor=default;" vertex="1" parent="1">
          <mxGeometry x="-50" y="465" width="330" height="130" as="geometry" />
        </mxCell>
        <mxCell id="R6RycZYEYg_AerZo2q_A-5" value="&lt;div style=&quot;text-align: center ; box-sizing: border-box ; width: 100% ; background: rgb(228 , 228 , 228) ; padding: 2px&quot;&gt;Nhân viên&lt;/div&gt;&lt;table style=&quot;width: 100% ; font-size: 1em&quot; cellpadding=&quot;2&quot; cellspacing=&quot;0&quot;&gt;&lt;tbody&gt;&lt;tr&gt;&lt;td&gt;PK&lt;/td&gt;&lt;td&gt;&#39;Mã nhân viên&#39; INT NOT NULL&amp;nbsp; AUTO_INCREMENT&lt;/td&gt;&lt;/tr&gt;&lt;tr&gt;&lt;td&gt;FK&lt;/td&gt;&lt;td&gt;&#39;Mã bộ phận&#39; INT NOT NULL&lt;/td&gt;&lt;/tr&gt;&lt;tr&gt;&lt;td&gt;&lt;span style=&quot;white-space: pre&quot;&gt;	&lt;/span&gt;&lt;br&gt;&lt;/td&gt;&lt;td&gt;&#39;Họ tên&#39; varchar(255) NOT NULL&amp;nbsp;&lt;/td&gt;&lt;/tr&gt;&lt;tr&gt;&lt;td&gt;&lt;br&gt;&lt;/td&gt;&lt;td&gt;&#39;Số điện thoại&#39; varchar(50) NOT NULL&lt;br&gt;&lt;/td&gt;&lt;/tr&gt;&lt;tr&gt;&lt;td&gt;&lt;br&gt;&lt;/td&gt;&lt;td&gt;&#39;Ngày sinh&#39; DATETIME NOT NULL&lt;/td&gt;&lt;/tr&gt;&lt;tr&gt;&lt;td&gt;&lt;br&gt;&lt;/td&gt;&lt;td&gt;&#39;Lương&#39; DECIMAL(36, 2) NOT NULL&lt;/td&gt;&lt;/tr&gt;&lt;/tbody&gt;&lt;/table&gt;" style="verticalAlign=top;align=left;overflow=fill;html=1;strokeColor=default;" vertex="1" parent="1">
          <mxGeometry x="550" y="460" width="340" height="160" as="geometry" />
        </mxCell>
        <mxCell id="R6RycZYEYg_AerZo2q_A-6" value="&lt;div style=&quot;text-align: center ; box-sizing: border-box ; width: 100% ; background: rgb(228 , 228 , 228) ; padding: 2px&quot;&gt;Chi phí&lt;/div&gt;&lt;table style=&quot;width: 100% ; font-size: 1em&quot; cellpadding=&quot;2&quot; cellspacing=&quot;0&quot;&gt;&lt;tbody&gt;&lt;tr&gt;&lt;td&gt;PK&lt;/td&gt;&lt;td&gt;&#39;Mã chi phí&#39; INT NOT NULL&amp;nbsp; AUTO_INCREMENT&lt;/td&gt;&lt;/tr&gt;&lt;tr&gt;&lt;td&gt;&lt;span style=&quot;white-space: pre&quot;&gt;	&lt;/span&gt;&lt;br&gt;&lt;/td&gt;&lt;td&gt;&#39;Tên chi phí&#39; varchar(255) NOT NULL&amp;nbsp;&lt;/td&gt;&lt;/tr&gt;&lt;tr&gt;&lt;td&gt;&lt;br&gt;&lt;/td&gt;&lt;td&gt;&#39;Số tiền&#39; DATETIME NOT NULL&lt;br&gt;&lt;/td&gt;&lt;/tr&gt;&lt;tr&gt;&lt;td&gt;FK&lt;/td&gt;&lt;td&gt;&#39;Mã NV duyệt&#39; INT NOT NULL&lt;/td&gt;&lt;/tr&gt;&lt;tr&gt;&lt;td&gt;FK&lt;/td&gt;&lt;td&gt;&#39;Mã bộ phận&#39; INT NOT NULL&lt;/td&gt;&lt;/tr&gt;&lt;/tbody&gt;&lt;/table&gt;" style="verticalAlign=top;align=left;overflow=fill;html=1;strokeColor=default;" vertex="1" parent="1">
          <mxGeometry x="-40" y="715" width="330" height="130" as="geometry" />
        </mxCell>
        <mxCell id="R6RycZYEYg_AerZo2q_A-7" value="&lt;div style=&quot;text-align: center ; box-sizing: border-box ; width: 100% ; background: rgb(228 , 228 , 228) ; padding: 2px&quot;&gt;Sản phẩm&lt;/div&gt;&lt;table style=&quot;width: 100% ; font-size: 1em&quot; cellpadding=&quot;2&quot; cellspacing=&quot;0&quot;&gt;&lt;tbody&gt;&lt;tr&gt;&lt;td&gt;PK&lt;/td&gt;&lt;td&gt;&#39;Mã sản phẩm&#39; INT NOT NULL&amp;nbsp; AUTO_INCREMENT&lt;/td&gt;&lt;/tr&gt;&lt;tr&gt;&lt;td&gt;&lt;span&gt;	&lt;/span&gt;&lt;br&gt;&lt;/td&gt;&lt;td&gt;&#39;Tên SP&#39; varchar(255) NOT NULL&amp;nbsp;&lt;/td&gt;&lt;/tr&gt;&lt;tr&gt;&lt;td&gt;&lt;br&gt;&lt;/td&gt;&lt;td&gt;&#39;Số lượng&#39;&amp;nbsp; INT NOTNULL&lt;br&gt;&lt;/td&gt;&lt;/tr&gt;&lt;tr&gt;&lt;td&gt;&lt;br&gt;&lt;/td&gt;&lt;td&gt;&#39;Giá&#39; DECIMAL(36, 2) NOT NULL&lt;/td&gt;&lt;/tr&gt;&lt;tr&gt;&lt;td&gt;FK&lt;/td&gt;&lt;td&gt;&#39;Mã danh mục&#39; INT NOT NULL&lt;/td&gt;&lt;/tr&gt;&lt;tr&gt;&lt;td&gt;&lt;br&gt;&lt;/td&gt;&lt;td&gt;&#39;Ngày nhập&#39; DATETIME NOT NULL&lt;/td&gt;&lt;/tr&gt;&lt;/tbody&gt;&lt;/table&gt;" style="verticalAlign=top;align=left;overflow=fill;html=1;strokeColor=default;" vertex="1" parent="1">
          <mxGeometry x="1040" y="750" width="350" height="140" as="geometry" />
        </mxCell>
        <mxCell id="R6RycZYEYg_AerZo2q_A-8" value="&lt;div style=&quot;text-align: center ; box-sizing: border-box ; width: 100% ; background: rgb(228 , 228 , 228) ; padding: 2px&quot;&gt;Danh mục sản phẩm&lt;/div&gt;&lt;table style=&quot;width: 100% ; font-size: 1em&quot; cellpadding=&quot;2&quot; cellspacing=&quot;0&quot;&gt;&lt;tbody&gt;&lt;tr&gt;&lt;td&gt;PK&lt;/td&gt;&lt;td&gt;&#39;Mã danh mục&#39; INT NOT NULL&amp;nbsp; AUTO_INCREMENT&lt;/td&gt;&lt;/tr&gt;&lt;tr&gt;&lt;td&gt;&lt;span style=&quot;white-space: pre&quot;&gt;	&lt;/span&gt;&lt;br&gt;&lt;/td&gt;&lt;td&gt;&#39;Tên danh mục&#39; varchar(255) NOT NULL&amp;nbsp;&lt;/td&gt;&lt;/tr&gt;&lt;/tbody&gt;&lt;/table&gt;" style="verticalAlign=top;align=left;overflow=fill;html=1;strokeColor=default;" vertex="1" parent="1">
          <mxGeometry x="500" y="810" width="350" height="80" as="geometry" />
        </mxCell>
        <mxCell id="R6RycZYEYg_AerZo2q_A-9" value="&lt;div style=&quot;text-align: center ; box-sizing: border-box ; width: 100% ; background: rgb(228 , 228 , 228) ; padding: 2px&quot;&gt;Sản phẩm bán&lt;/div&gt;&lt;table style=&quot;width: 100% ; font-size: 1em&quot; cellpadding=&quot;2&quot; cellspacing=&quot;0&quot;&gt;&lt;tbody&gt;&lt;tr&gt;&lt;td&gt;PK&lt;/td&gt;&lt;td&gt;&#39;Mã&#39; varchar(36) NOT NULL&amp;nbsp;&lt;/td&gt;&lt;/tr&gt;&lt;tr&gt;&lt;td&gt;FK&lt;/td&gt;&lt;td&gt;&#39;Mã KH&#39; INT NOT NULL&lt;/td&gt;&lt;/tr&gt;&lt;tr&gt;&lt;td&gt;FK&lt;/td&gt;&lt;td&gt;&#39;Mã NV bán&#39; INT NOT NULL&lt;/td&gt;&lt;/tr&gt;&lt;tr&gt;&lt;td&gt;FK&lt;/td&gt;&lt;td&gt;&#39;Mã SP&#39; INT NOT NULL&lt;/td&gt;&lt;/tr&gt;&lt;tr&gt;&lt;td&gt;&lt;br&gt;&lt;/td&gt;&lt;td&gt;&#39;Số lượng&#39;&amp;nbsp; INT NOT NULL&lt;br&gt;&lt;/td&gt;&lt;/tr&gt;&lt;tr&gt;&lt;td&gt;&lt;br&gt;&lt;/td&gt;&lt;td&gt;&#39;Giá bán&#39; DECIMAL(36, 2) NOT NULL&lt;/td&gt;&lt;/tr&gt;&lt;tr&gt;&lt;td&gt;&lt;br&gt;&lt;/td&gt;&lt;td&gt;&#39;Ngày bán&#39; DATETIME NOT NULL&lt;/td&gt;&lt;/tr&gt;&lt;/tbody&gt;&lt;/table&gt;" style="verticalAlign=top;align=left;overflow=fill;html=1;strokeColor=default;" vertex="1" parent="1">
          <mxGeometry x="1530" y="460" width="350" height="170" as="geometry" />
        </mxCell>
        <mxCell id="R6RycZYEYg_AerZo2q_A-13" value="" style="edgeStyle=orthogonalEdgeStyle;fontSize=12;html=1;endArrow=ERzeroToMany;startArrow=ERzeroToOne;rounded=0;entryX=0;entryY=0.25;entryDx=0;entryDy=0;" edge="1" parent="1" target="R6RycZYEYg_AerZo2q_A-1">
          <mxGeometry width="100" height="100" relative="1" as="geometry">
            <mxPoint x="-50" y="490" as="sourcePoint" />
            <mxPoint x="-120" y="380" as="targetPoint" />
            <Array as="points">
              <mxPoint x="-110" y="490" />
              <mxPoint x="-110" y="173" />
            </Array>
          </mxGeometry>
        </mxCell>
        <mxCell id="R6RycZYEYg_AerZo2q_A-15" value="" style="edgeStyle=orthogonalEdgeStyle;fontSize=12;html=1;endArrow=ERzeroToMany;startArrow=ERzeroToOne;rounded=0;exitX=0;exitY=0.25;exitDx=0;exitDy=0;entryX=0;entryY=0.75;entryDx=0;entryDy=0;" edge="1" parent="1" source="R6RycZYEYg_AerZo2q_A-4" target="R6RycZYEYg_AerZo2q_A-6">
          <mxGeometry width="100" height="100" relative="1" as="geometry">
            <mxPoint x="-140" y="670" as="sourcePoint" />
            <mxPoint x="-40" y="570" as="targetPoint" />
            <Array as="points">
              <mxPoint x="-110" y="498" />
              <mxPoint x="-110" y="813" />
            </Array>
          </mxGeometry>
        </mxCell>
        <mxCell id="R6RycZYEYg_AerZo2q_A-16" value="" style="edgeStyle=orthogonalEdgeStyle;fontSize=12;html=1;endArrow=ERzeroToMany;startArrow=ERmandOne;rounded=0;entryX=1.001;entryY=0.618;entryDx=0;entryDy=0;entryPerimeter=0;" edge="1" parent="1" target="R6RycZYEYg_AerZo2q_A-4">
          <mxGeometry width="100" height="100" relative="1" as="geometry">
            <mxPoint x="520" y="170" as="sourcePoint" />
            <mxPoint x="290" y="540" as="targetPoint" />
            <Array as="points">
              <mxPoint x="520" y="170" />
              <mxPoint x="390" y="170" />
              <mxPoint x="390" y="545" />
            </Array>
          </mxGeometry>
        </mxCell>
        <mxCell id="R6RycZYEYg_AerZo2q_A-18" value="" style="edgeStyle=entityRelationEdgeStyle;fontSize=12;html=1;endArrow=ERzeroToMany;endFill=1;startArrow=ERzeroToMany;rounded=0;exitX=1;exitY=0.25;exitDx=0;exitDy=0;entryX=0;entryY=0.25;entryDx=0;entryDy=0;" edge="1" parent="1" source="R6RycZYEYg_AerZo2q_A-4" target="R6RycZYEYg_AerZo2q_A-5">
          <mxGeometry width="100" height="100" relative="1" as="geometry">
            <mxPoint x="450" y="600" as="sourcePoint" />
            <mxPoint x="550" y="500" as="targetPoint" />
          </mxGeometry>
        </mxCell>
        <mxCell id="R6RycZYEYg_AerZo2q_A-19" value="" style="edgeStyle=orthogonalEdgeStyle;fontSize=12;html=1;endArrow=ERzeroToMany;startArrow=ERzeroToOne;rounded=0;exitX=-0.001;exitY=0.162;exitDx=0;exitDy=0;exitPerimeter=0;" edge="1" parent="1" source="R6RycZYEYg_AerZo2q_A-5" target="R6RycZYEYg_AerZo2q_A-6">
          <mxGeometry width="100" height="100" relative="1" as="geometry">
            <mxPoint x="479.94000000000005" y="595" as="sourcePoint" />
            <mxPoint x="489.94000000000005" y="909.9999999999998" as="targetPoint" />
            <Array as="points">
              <mxPoint x="420" y="486" />
              <mxPoint x="420" y="790" />
            </Array>
          </mxGeometry>
        </mxCell>
        <mxCell id="R6RycZYEYg_AerZo2q_A-21" value="" style="edgeStyle=orthogonalEdgeStyle;fontSize=12;html=1;endArrow=ERzeroToMany;startArrow=ERmandOne;rounded=0;exitX=1;exitY=0.25;exitDx=0;exitDy=0;entryX=0;entryY=0.25;entryDx=0;entryDy=0;" edge="1" parent="1" source="R6RycZYEYg_AerZo2q_A-3" target="R6RycZYEYg_AerZo2q_A-9">
          <mxGeometry width="100" height="100" relative="1" as="geometry">
            <mxPoint x="1310" y="540" as="sourcePoint" />
            <mxPoint x="1410" y="440" as="targetPoint" />
          </mxGeometry>
        </mxCell>
        <mxCell id="R6RycZYEYg_AerZo2q_A-22" value="" style="edgeStyle=orthogonalEdgeStyle;fontSize=12;html=1;endArrow=ERmandOne;startArrow=ERmandOne;rounded=0;exitX=1;exitY=0.25;exitDx=0;exitDy=0;entryX=0;entryY=0.5;entryDx=0;entryDy=0;" edge="1" parent="1" source="R6RycZYEYg_AerZo2q_A-7" target="R6RycZYEYg_AerZo2q_A-9">
          <mxGeometry width="100" height="100" relative="1" as="geometry">
            <mxPoint x="1510" y="790" as="sourcePoint" />
            <mxPoint x="1510" y="540" as="targetPoint" />
            <Array as="points">
              <mxPoint x="1455" y="785" />
              <mxPoint x="1455" y="545" />
            </Array>
          </mxGeometry>
        </mxCell>
        <mxCell id="R6RycZYEYg_AerZo2q_A-24" value="" style="edgeStyle=orthogonalEdgeStyle;fontSize=12;html=1;endArrow=ERoneToMany;startArrow=ERoneToMany;rounded=0;exitX=1.007;exitY=0.168;exitDx=0;exitDy=0;exitPerimeter=0;entryX=-0.004;entryY=0.363;entryDx=0;entryDy=0;entryPerimeter=0;" edge="1" parent="1" source="R6RycZYEYg_AerZo2q_A-5" target="R6RycZYEYg_AerZo2q_A-9">
          <mxGeometry width="100" height="100" relative="1" as="geometry">
            <mxPoint x="960" y="550" as="sourcePoint" />
            <mxPoint x="1240" y="570" as="targetPoint" />
          </mxGeometry>
        </mxCell>
        <mxCell id="R6RycZYEYg_AerZo2q_A-25" value="" style="edgeStyle=orthogonalEdgeStyle;fontSize=12;html=1;endArrow=ERzeroToMany;startArrow=ERzeroToOne;rounded=0;entryX=0;entryY=0.75;entryDx=0;entryDy=0;exitX=1;exitY=0.25;exitDx=0;exitDy=0;" edge="1" parent="1" source="R6RycZYEYg_AerZo2q_A-8" target="R6RycZYEYg_AerZo2q_A-7">
          <mxGeometry width="100" height="100" relative="1" as="geometry">
            <mxPoint x="890" y="820" as="sourcePoint" />
            <mxPoint x="960" y="855" as="targetPoint" />
            <Array as="points">
              <mxPoint x="990" y="830" />
              <mxPoint x="990" y="855" />
            </Array>
          </mxGeometry>
        </mxCell>
      </root>
    </mxGraphModel>
  </diagram>
</mxfile>
